<svg id="Layer_1" data-name="Layer 1" xmlns="http://www.w3.org/2000/svg" viewBox="0 0 20 19"><defs><style>.cls-1{fill:#fff;}</style></defs><path class="cls-1" d="M19.15,3a2,2,0,0,0-1.72-1H6.57A2,2,0,0,0,4.85,3L2.14,7.49A1,1,0,0,0,2,8a3.94,3.94,0,0,0,1,2.62V19a2,2,0,0,0,2,2H19a2,2,0,0,0,2-2V10.62A3.94,3.94,0,0,0,22,8a1,1,0,0,0-.14-.51ZM20,8.25A2,2,0,0,1,16,8a.58.58,0,0,0,0-.19h0L15.22,4h2.21ZM10.82,4h2.36L14,8.07a2,2,0,0,1-4,0ZM6.57,4H8.78L8,7.8H8A.58.58,0,0,0,8,8a2,2,0,0,1-4,.25ZM10,19V16h4v3Zm6,0V16a2,2,0,0,0-2-2H10a2,2,0,0,0-2,2v3H5V11.86A4.09,4.09,0,0,0,6,12a4,4,0,0,0,3-1.36,4,4,0,0,0,6,0A4,4,0,0,0,18,12a4.09,4.09,0,0,0,1-.14V19Z" transform="translate(-2 -2)"/></svg>