<?xml version="1.0" encoding="utf-8"?>
<!-- Generator: Adobe Illustrator 25.2.1, SVG Export Plug-In . SVG Version: 6.00 Build 0)  -->
<svg version="1.1" id="Layer_1" xmlns="http://www.w3.org/2000/svg" xmlns:xlink="http://www.w3.org/1999/xlink" x="0px" y="0px"
	 viewBox="0 0 24 24" style="enable-background:new 0 0 24 24;" xml:space="preserve">
<style type="text/css">
	.st0{fill:#001135;}
</style>
<path class="st0" d="M5,20c0,1.1,0.9,2,2,2h10c1.1,0,2-0.9,2-2V8h2V6h-4V4c0-1.1-0.9-2-2-2H9C7.9,2,7,2.9,7,4v2H3v2h2V20z M9,4h6v2
	H9V4z M8,8h9v12H7V8H8z"/>
<path class="st0" d="M9,10h2v8H9V10z M13,10h2v8h-2V10z"/>
</svg>
