<svg id="Layer_1" data-name="Layer 1" xmlns="http://www.w3.org/2000/svg" viewBox="0 0 18.01 19.92"><defs><style>.cls-1{fill:#001135;}.cls-2{fill:#ff6f00;}</style></defs><path class="cls-1" d="M11.5,21.8a.91.91,0,0,0,1,0C20.5,17.4,21,9,21,6.6a1,1,0,0,0-.6-.9L12.3,2.1a1.1,1.1,0,0,0-.8,0l-8,3.6a1.19,1.19,0,0,0-.5.9C2.9,9,3.4,17.4,11.5,21.8ZM8.7,10.3,11,12.6l4.3-4.3,1.4,1.4L11,15.4,7.3,11.7Z" transform="translate(-2.99 -2.02)"/><path class="cls-2" d="M8.7,10.3,11,12.6l4.3-4.3,1.4,1.4L11,15.4,7.3,11.7Z" transform="translate(-2.99 -2.02)"/></svg>